<svg width="20" height="21" viewBox="0 0 20 21" fill="none" xmlns="http://www.w3.org/2000/svg">
<g clip-path="url(#clip0_1_43)">
<path d="M17.5333 6.35654H8.73333C8.28889 6.35654 7.86667 6.48988 7.46667 6.75654C7.37778 6.08988 7.1 5.54543 6.63333 5.12321C6.16667 4.70099 5.62222 4.48988 5 4.48988C4.51111 4.48988 4.06667 4.60099 3.66667 4.82321V3.82321C3.66667 3.64543 3.61111 3.50099 3.5 3.38988C3.38889 3.27876 3.24444 3.22321 3.06667 3.22321H0.6C0.422222 3.22321 0.277778 3.27876 0.166667 3.38988C0.0555556 3.50099 0 3.64543 0 3.82321V16.3565C0 16.5343 0.0555556 16.6788 0.166667 16.7899C0.277778 16.901 0.422222 16.9565 0.6 16.9565H3.06667C3.24444 16.9565 3.38889 16.901 3.5 16.7899C3.61111 16.6788 3.66667 16.5343 3.66667 16.3565V14.4232H16.3333V16.3565C16.3333 16.5343 16.3889 16.6788 16.5 16.7899C16.6111 16.901 16.7556 16.9565 16.9333 16.9565H19.4C19.5778 16.9565 19.7222 16.901 19.8333 16.7899C19.9444 16.6788 20 16.5343 20 16.3565V8.82321C20 8.15654 19.7556 7.57876 19.2667 7.08988C18.7778 6.60099 18.2 6.35654 17.5333 6.35654ZM5 5.62321C5.35556 5.62321 5.65556 5.75654 5.9 6.02321C6.14444 6.28988 6.26667 6.60099 6.26667 6.95654C6.26667 7.3121 6.14444 7.6121 5.9 7.85654C5.65556 8.10099 5.35556 8.22321 5 8.22321C4.64444 8.22321 4.33333 8.10099 4.06667 7.85654C3.8 7.6121 3.66667 7.3121 3.66667 6.95654C3.66667 6.60099 3.8 6.28988 4.06667 6.02321C4.33333 5.75654 4.64444 5.62321 5 5.62321ZM3.66667 9.02321C4.06667 9.28988 4.5 9.42321 4.96667 9.42321C5.43333 9.42321 5.86667 9.28988 6.26667 9.02321V10.7565H3.66667V9.02321ZM18.8 15.7565H17.4667V13.8232C17.4667 13.6899 17.4111 13.5677 17.3 13.4565C17.1889 13.3454 17.0667 13.2899 16.9333 13.2899H3.06667C2.93333 13.2899 2.81111 13.3454 2.7 13.4565C2.58889 13.5677 2.53333 13.6899 2.53333 13.8232V15.7565H1.2V4.42321H2.53333V11.3565C2.53333 11.4899 2.58889 11.6232 2.7 11.7565C2.81111 11.8899 2.93333 11.9565 3.06667 11.9565H18.8V15.7565ZM18.8 10.7565H7.46667V8.82321C7.46667 8.46765 7.58889 8.16765 7.83333 7.92321C8.07778 7.67876 8.37778 7.55654 8.73333 7.55654H17.5333C17.8889 7.55654 18.1889 7.67876 18.4333 7.92321C18.6778 8.16765 18.8 8.46765 18.8 8.82321V10.7565Z" fill="white"/>
</g>
<defs>
<clipPath id="clip0_1_43">
<rect width="20" height="20" fill="white" transform="matrix(1 0 0 -1 0 20.0898)"/>
</clipPath>
</defs>
</svg>
