<svg width="21" height="21" viewBox="0 0 21 21" fill="none" xmlns="http://www.w3.org/2000/svg">
<g clip-path="url(#clip0_1_47)">
<path d="M20.95 10.2232C20.95 9.73429 20.7833 9.32317 20.45 8.98984C20.1167 8.65651 19.7056 8.48984 19.2167 8.48984H4.08335V3.08984C4.08335 2.6454 4.2389 2.26762 4.55001 1.95651C4.77223 1.73429 5.02779 1.60095 5.31668 1.55651C5.60557 1.51206 5.90557 1.53428 6.21668 1.62317C5.81668 2.2454 5.66112 2.93429 5.75001 3.68984C5.8389 4.4454 6.15001 5.08984 6.68335 5.62317L6.81668 5.82317C6.95001 5.91206 7.09446 5.95651 7.25001 5.95651C7.40557 5.95651 7.52779 5.91206 7.61668 5.82317L11.4167 2.02317C11.55 1.88984 11.6167 1.7454 11.6167 1.58984C11.6167 1.43429 11.55 1.28984 11.4167 1.15651L11.2833 1.02317C10.7056 0.445396 10.0056 0.134285 9.18335 0.0898399C8.36112 0.0453968 7.6389 0.267618 7.01668 0.756508C6.48335 0.445396 5.90557 0.323174 5.28335 0.389841C4.66112 0.456507 4.12779 0.712063 3.68335 1.15651C3.15001 1.68984 2.88335 2.33429 2.88335 3.08984V8.48984H2.68335C2.19446 8.48984 1.78335 8.65651 1.45001 8.98984C1.11668 9.32317 0.950012 9.73429 0.950012 10.2232C0.950012 10.6232 1.06112 10.9676 1.28335 11.2565C1.50557 11.5454 1.77223 11.7565 2.08335 11.8898V13.1565C2.08335 14.2232 2.37223 15.201 2.95001 16.0898C3.52779 16.9787 4.26112 17.6676 5.15001 18.1565L4.61668 19.2232C4.52779 19.401 4.51668 19.5565 4.58335 19.6898C4.65001 19.8232 4.75001 19.9343 4.88335 20.0232C5.01668 20.1121 5.16112 20.1232 5.31668 20.0565C5.47223 19.9898 5.59446 19.8898 5.68335 19.7565L6.28335 18.5565C6.72779 18.6454 7.19446 18.6898 7.68335 18.6898H14.2167C14.7056 18.6898 15.1722 18.6454 15.6167 18.5565L16.2167 19.7565C16.3056 19.8898 16.4278 19.9898 16.5833 20.0565C16.7389 20.1232 16.8833 20.1121 17.0167 20.0232C17.15 19.9343 17.25 19.8232 17.3167 19.6898C17.3833 19.5565 17.3722 19.401 17.2833 19.2232L16.75 18.1565C17.6389 17.6676 18.3722 16.9787 18.95 16.0898C19.5278 15.201 19.8167 14.2232 19.8167 13.1565V11.8898C20.1278 11.7565 20.3945 11.5454 20.6167 11.2565C20.8389 10.9676 20.95 10.6232 20.95 10.2232ZM10.15 1.62317L7.28335 4.55651C6.97223 4.11206 6.8389 3.6454 6.88335 3.15651C6.92779 2.66762 7.12779 2.2454 7.48335 1.88984C7.8389 1.53428 8.27223 1.33429 8.78335 1.28984C9.29446 1.2454 9.75001 1.35651 10.15 1.62317ZM2.68335 9.68984H19.2167C19.35 9.68984 19.4722 9.7454 19.5833 9.85651C19.6945 9.96762 19.75 10.101 19.75 10.2565C19.75 10.4121 19.6945 10.5454 19.5833 10.6565C19.4722 10.7676 19.35 10.8232 19.2167 10.8232H2.68335C2.55001 10.8232 2.42779 10.7676 2.31668 10.6565C2.20557 10.5454 2.15001 10.4121 2.15001 10.2565C2.15001 10.101 2.20557 9.96762 2.31668 9.85651C2.42779 9.7454 2.55001 9.68984 2.68335 9.68984ZM18.6167 13.1565C18.6167 13.9565 18.4167 14.6898 18.0167 15.3565C17.6167 16.0232 17.0833 16.5565 16.4167 16.9565C15.75 17.3565 15.0167 17.5565 14.2167 17.5565H7.68335C6.88335 17.5565 6.15001 17.3565 5.48335 16.9565C4.81668 16.5565 4.28335 16.0232 3.88335 15.3565C3.48335 14.6898 3.28335 13.9565 3.28335 13.1565V12.0232H18.6167V13.1565ZM9.41668 6.02317C9.41668 6.20095 9.47223 6.3454 9.58335 6.45651C9.69446 6.56762 9.82779 6.62317 9.98335 6.62317C10.1389 6.62317 10.2722 6.56762 10.3833 6.45651C10.4945 6.3454 10.55 6.20095 10.55 6.02317C10.55 5.8454 10.4945 5.70095 10.3833 5.58984C10.2722 5.47873 10.1389 5.42317 9.98335 5.42317C9.82779 5.42317 9.69446 5.47873 9.58335 5.58984C9.47223 5.70095 9.41668 5.8454 9.41668 6.02317ZM11.0833 4.35651C11.0833 4.53429 11.1389 4.67873 11.25 4.78984C11.3611 4.90095 11.4945 4.95651 11.65 4.95651C11.8056 4.95651 11.9389 4.90095 12.05 4.78984C12.1611 4.67873 12.2167 4.53429 12.2167 4.35651C12.2167 4.17873 12.1611 4.03428 12.05 3.92317C11.9389 3.81206 11.8056 3.75651 11.65 3.75651C11.4945 3.75651 11.3611 3.81206 11.25 3.92317C11.1389 4.03428 11.0833 4.17873 11.0833 4.35651ZM11.4833 6.42317C11.4833 6.55651 11.5389 6.68984 11.65 6.82317C11.7611 6.95651 11.8945 7.02317 12.05 7.02317C12.2056 7.02317 12.3389 6.95651 12.45 6.82317C12.5611 6.68984 12.6167 6.5454 12.6167 6.38984C12.6167 6.23429 12.5611 6.10095 12.45 5.98984C12.3389 5.87873 12.2056 5.82317 12.05 5.82317C11.8945 5.82317 11.7611 5.87873 11.65 5.98984C11.5389 6.10095 11.4833 6.2454 11.4833 6.42317Z" fill="white"/>
</g>
<defs>
<clipPath id="clip0_1_47">
<rect width="20" height="20" fill="white" transform="matrix(1 0 0 -1 0.950012 20.0898)"/>
</clipPath>
</defs>
</svg>
