<svg width="15" height="13" viewBox="0 0 15 13" fill="none" xmlns="http://www.w3.org/2000/svg">
<g clip-path="url(#clip0_1_189)">
<path d="M1.22253 6.10756H12.4441L8.14719 2.01481C7.92219 1.80049 7.91347 1.44443 8.12778 1.21943C8.34181 0.994715 8.69787 0.985715 8.92315 1.20003L13.8304 5.8744C14.0427 6.08702 14.16 6.3694 14.16 6.67006C14.16 6.97043 14.0427 7.25309 13.8205 7.47499L8.92287 12.1398C8.81403 12.2435 8.67453 12.295 8.53503 12.295C8.38653 12.295 8.23803 12.2365 8.1275 12.1204C7.91319 11.8954 7.92191 11.5396 8.14691 11.3253L12.4618 7.23256H1.22253C0.912034 7.23256 0.660034 6.98056 0.660034 6.67006C0.660034 6.35956 0.912034 6.10756 1.22253 6.10756Z" fill="#1A1A1A"/>
</g>
<defs>
<clipPath id="clip0_1_189">
<rect width="14" height="12" fill="white" transform="translate(0.410034 0.670044)"/>
</clipPath>
</defs>
</svg>
