<svg width="200" height="58" viewBox="0 0 200 58" fill="none" xmlns="http://www.w3.org/2000/svg">
<g clip-path="url(#clip0_1_209)">
<g clip-path="url(#clip1_1_209)">
<path fill-rule="evenodd" clip-rule="evenodd" d="M24.4471 15.9024L24.4353 56.5444L28.7746 56.5323L28.7625 42.3459L36.4281 42.3338L36.416 56.5323H40.9578V1.40039L36.4039 4.41995L36.3983 38.047L28.8102 38.0219L28.8162 8.41471L0 25.0835L0.0387793 47.9321L4.59272 47.9445L4.59861 27.6114L24.4471 15.9024Z" fill="#1A1A1A"/>
<path fill-rule="evenodd" clip-rule="evenodd" d="M16.567 56.3422V25.4675L12.0856 28.094L12.1802 52.1494L0.0687157 52.0542L0.0088501 56.3181L16.567 56.3422Z" fill="#1A1A1A"/>
<path d="M72.3921 33.4818V18.5493H76.0586V33.4818C76.0586 34.8983 75.7555 36.1048 75.1493 37.1013C74.5431 38.0978 73.717 38.8598 72.6708 39.3873C71.6246 39.9149 70.4367 40.1787 69.107 40.1787C67.7479 40.1787 66.5404 39.9491 65.4845 39.4899C64.4383 39.0308 63.6171 38.3274 63.0206 37.3797C62.4242 36.4321 62.126 35.2305 62.126 33.7748H65.8218C65.8218 34.615 65.9538 35.294 66.2178 35.8117C66.4916 36.3198 66.8729 36.691 67.3617 36.9255C67.8604 37.1502 68.4421 37.2625 69.107 37.2625C69.7425 37.2625 70.3047 37.1208 70.7936 36.8375C71.2922 36.5445 71.6833 36.1195 71.9668 35.5626C72.2504 34.996 72.3921 34.3024 72.3921 33.4818Z" fill="#1A1A1A"/>
<path d="M89.4926 36.1489V24.03H93.0417V39.8857H89.6979L89.4926 36.1489ZM89.9912 32.8517L91.1791 32.8224C91.1791 33.8873 91.0618 34.8691 90.8272 35.7679C90.5925 36.6569 90.2307 37.4336 89.7419 38.0979C89.253 38.7524 88.6273 39.2653 87.8646 39.6366C87.102 39.998 86.1878 40.1788 85.1221 40.1788C84.3497 40.1788 83.6409 40.0664 82.9956 39.8417C82.3503 39.617 81.793 39.2702 81.3237 38.8013C80.8641 38.3323 80.5073 37.7218 80.2531 36.9695C79.9988 36.2173 79.8717 35.3185 79.8717 34.2732V24.03H83.4062V34.3025C83.4062 34.8789 83.4747 35.3625 83.6115 35.7532C83.7484 36.1342 83.9342 36.442 84.1688 36.6764C84.4035 36.9109 84.6773 37.077 84.9901 37.1747C85.303 37.2724 85.6354 37.3212 85.9874 37.3212C86.9945 37.3212 87.7864 37.1258 88.3633 36.7351C88.9499 36.3345 89.3655 35.7972 89.6099 35.1231C89.8641 34.449 89.9912 33.6919 89.9912 32.8517Z" fill="#1A1A1A"/>
<path d="M105.566 35.5919C105.566 35.2402 105.478 34.9227 105.302 34.6394C105.126 34.3463 104.789 34.0826 104.29 33.8481C103.802 33.6136 103.078 33.3987 102.12 33.2033C101.279 33.0177 100.507 32.7979 99.8027 32.5439C99.1085 32.2801 98.5121 31.9626 98.0134 31.5914C97.5148 31.2201 97.1286 30.7805 96.8548 30.2725C96.5811 29.7645 96.4442 29.1784 96.4442 28.514C96.4442 27.8693 96.586 27.2587 96.8695 26.6823C97.153 26.1059 97.5588 25.5979 98.0868 25.1583C98.6147 24.7186 99.2551 24.3718 100.008 24.1178C100.771 23.8638 101.621 23.7368 102.56 23.7368C103.89 23.7368 105.029 23.9615 105.977 24.4109C106.935 24.8505 107.668 25.4513 108.177 26.2133C108.685 26.9656 108.94 27.8155 108.94 28.7632H105.405C105.405 28.3431 105.297 27.9523 105.082 27.5908C104.877 27.2196 104.564 26.9216 104.144 26.6969C103.723 26.4625 103.195 26.3452 102.56 26.3452C101.954 26.3452 101.45 26.4429 101.049 26.6383C100.658 26.8239 100.365 27.0682 100.169 27.371C99.9836 27.6739 99.8907 28.006 99.8907 28.3675C99.8907 28.6313 99.9396 28.8706 100.037 29.0855C100.145 29.2907 100.321 29.4812 100.565 29.6571C100.81 29.8231 101.142 29.9794 101.563 30.126C101.993 30.2725 102.531 30.4142 103.176 30.5509C104.388 30.8049 105.429 31.1322 106.3 31.5328C107.18 31.9235 107.854 32.4315 108.324 33.0568C108.793 33.6723 109.028 34.4538 109.028 35.4014C109.028 36.1048 108.876 36.7496 108.573 37.3358C108.28 37.9122 107.849 38.4153 107.282 38.8451C106.715 39.2652 106.036 39.5925 105.244 39.827C104.462 40.0614 103.582 40.1787 102.604 40.1787C101.167 40.1787 99.9493 39.9246 98.9521 39.4166C97.9548 38.8989 97.197 38.2394 96.6788 37.4383C96.1704 36.6275 95.9162 35.7873 95.9162 34.9178H99.3334C99.3725 35.5724 99.5534 36.0951 99.876 36.4858C100.208 36.8668 100.619 37.1453 101.108 37.3211C101.607 37.4872 102.12 37.5702 102.648 37.5702C103.283 37.5702 103.816 37.4872 104.246 37.3211C104.677 37.1453 105.004 36.9108 105.229 36.6177C105.454 36.3149 105.566 35.9729 105.566 35.5919Z" fill="#1A1A1A"/>
<path d="M119.396 24.03V26.6091H110.45V24.03H119.396ZM113.031 20.1467H116.566V35.5041C116.566 35.9926 116.634 36.3687 116.771 36.6325C116.918 36.8865 117.118 37.0574 117.372 37.1454C117.627 37.2333 117.925 37.2773 118.267 37.2773C118.511 37.2773 118.746 37.2626 118.971 37.2333C119.196 37.204 119.377 37.1747 119.514 37.1454L119.528 39.8417C119.235 39.9296 118.893 40.0078 118.502 40.0762C118.12 40.1446 117.68 40.1788 117.182 40.1788C116.37 40.1788 115.652 40.0371 115.026 39.7538C114.4 39.4607 113.911 38.9869 113.559 38.3323C113.207 37.6778 113.031 36.8083 113.031 35.7239V20.1467Z" fill="#1A1A1A"/>
<path d="M136.585 27.4589V30.3751H125.248V27.4589H136.585ZM126.157 18.5493V39.8856H122.476V18.5493H126.157ZM139.415 18.5493V39.8856H135.749V18.5493H139.415Z" fill="#1A1A1A"/>
<path d="M142.774 32.1336V31.7965C142.774 30.6535 142.94 29.5935 143.272 28.6166C143.605 27.6299 144.084 26.7751 144.71 26.0522C145.345 25.3195 146.118 24.7528 147.027 24.3523C147.946 23.942 148.982 23.7368 150.136 23.7368C151.299 23.7368 152.336 23.942 153.245 24.3523C154.164 24.7528 154.942 25.3195 155.577 26.0522C156.213 26.7751 156.697 27.6299 157.029 28.6166C157.361 29.5935 157.528 30.6535 157.528 31.7965V32.1336C157.528 33.2766 157.361 34.3366 157.029 35.3135C156.697 36.2904 156.213 37.1453 155.577 37.878C154.942 38.6009 154.169 39.1675 153.26 39.5778C152.351 39.9784 151.319 40.1787 150.165 40.1787C149.002 40.1787 147.961 39.9784 147.041 39.5778C146.132 39.1675 145.36 38.6009 144.724 37.878C144.089 37.1453 143.605 36.2904 143.272 35.3135C142.94 34.3366 142.774 33.2766 142.774 32.1336ZM146.308 31.7965V32.1336C146.308 32.8467 146.382 33.5208 146.528 34.1558C146.675 34.7908 146.905 35.3477 147.217 35.8264C147.53 36.3051 147.931 36.6812 148.42 36.9548C148.909 37.2283 149.491 37.3651 150.165 37.3651C150.82 37.3651 151.387 37.2283 151.867 36.9548C152.355 36.6812 152.756 36.3051 153.069 35.8264C153.382 35.3477 153.612 34.7908 153.758 34.1558C153.915 33.5208 153.993 32.8467 153.993 32.1336V31.7965C153.993 31.0931 153.915 30.4288 153.758 29.8036C153.612 29.1686 153.377 28.6068 153.055 28.1184C152.742 27.6299 152.341 27.2489 151.852 26.9754C151.373 26.692 150.801 26.5504 150.136 26.5504C149.471 26.5504 148.894 26.692 148.405 26.9754C147.926 27.2489 147.53 27.6299 147.217 28.1184C146.905 28.6068 146.675 29.1686 146.528 29.8036C146.382 30.4288 146.308 31.0931 146.308 31.7965Z" fill="#1A1A1A"/>
<path d="M164.025 27.2538V39.8856H160.49V24.0299H163.819L164.025 27.2538ZM163.453 31.3716L162.25 31.3569C162.25 30.2628 162.387 29.2516 162.661 28.3235C162.934 27.3954 163.335 26.5895 163.863 25.9056C164.391 25.212 165.046 24.6796 165.828 24.3083C166.62 23.9273 167.535 23.7368 168.571 23.7368C169.295 23.7368 169.954 23.8443 170.551 24.0592C171.157 24.2644 171.68 24.5916 172.12 25.041C172.57 25.4904 172.912 26.0668 173.147 26.7702C173.391 27.4736 173.513 28.3235 173.513 29.32V39.8856H169.979V29.6277C169.979 28.856 169.862 28.2503 169.627 27.8106C169.402 27.371 169.075 27.0584 168.644 26.8728C168.224 26.6774 167.72 26.5797 167.134 26.5797C166.469 26.5797 165.902 26.7067 165.433 26.9607C164.973 27.2147 164.597 27.5615 164.303 28.0011C164.01 28.4408 163.795 28.9488 163.658 29.5252C163.521 30.1016 163.453 30.717 163.453 31.3716ZM173.293 30.4337L171.636 30.8001C171.636 29.8427 171.768 28.939 172.032 28.0891C172.306 27.2294 172.702 26.4771 173.22 25.8323C173.748 25.1778 174.398 24.6649 175.171 24.2937C175.943 23.9224 176.828 23.7368 177.825 23.7368C178.637 23.7368 179.36 23.8492 179.996 24.0739C180.641 24.2888 181.189 24.6307 181.638 25.0996C182.088 25.5686 182.43 26.1792 182.665 26.9314C182.9 27.6739 183.017 28.5727 183.017 29.6277V39.8856H179.468V29.6131C179.468 28.812 179.35 28.1916 179.116 27.752C178.891 27.3124 178.568 27.0096 178.148 26.8435C177.727 26.6676 177.224 26.5797 176.637 26.5797C176.09 26.5797 175.606 26.6823 175.185 26.8874C174.775 27.0828 174.428 27.3613 174.144 27.7227C173.861 28.0744 173.645 28.4798 173.499 28.939C173.362 29.3982 173.293 29.8964 173.293 30.4337Z" fill="#1A1A1A"/>
<path d="M193.65 40.1787C192.476 40.1787 191.416 39.9882 190.467 39.6071C189.529 39.2164 188.727 38.6742 188.062 37.9805C187.407 37.2869 186.903 36.4712 186.551 35.5333C186.199 34.5955 186.023 33.5843 186.023 32.4999V31.9138C186.023 30.6731 186.204 29.5496 186.566 28.5433C186.928 27.5371 187.431 26.6774 188.077 25.9642C188.722 25.2413 189.485 24.6893 190.365 24.3083C191.244 23.9273 192.198 23.7368 193.224 23.7368C194.359 23.7368 195.351 23.9273 196.202 24.3083C197.052 24.6893 197.756 25.2266 198.313 25.9203C198.88 26.6041 199.301 27.4199 199.575 28.3675C199.858 29.3151 200 30.3604 200 31.5035V33.0128H187.739V30.4777H196.51V30.1993C196.49 29.5642 196.363 28.9683 196.128 28.4115C195.903 27.8546 195.556 27.4052 195.087 27.0633C194.618 26.7214 193.992 26.5504 193.21 26.5504C192.623 26.5504 192.1 26.6774 191.64 26.9314C191.191 27.1756 190.814 27.5322 190.511 28.0011C190.208 28.4701 189.973 29.0367 189.807 29.701C189.651 30.3556 189.573 31.0931 189.573 31.9138V32.4999C189.573 33.1936 189.665 33.8383 189.851 34.4343C190.047 35.0204 190.33 35.5333 190.702 35.9729C191.073 36.4126 191.523 36.7594 192.051 37.0134C192.579 37.2576 193.18 37.3797 193.855 37.3797C194.706 37.3797 195.463 37.2088 196.128 36.8668C196.793 36.5249 197.37 36.0413 197.859 35.4161L199.721 37.2185C199.379 37.7168 198.934 38.1955 198.387 38.6546C197.839 39.104 197.169 39.4704 196.378 39.7537C195.595 40.037 194.686 40.1787 193.65 40.1787Z" fill="#1A1A1A"/>
</g>
</g>
<defs>
<clipPath id="clip0_1_209">
<rect width="200" height="57" fill="white" transform="translate(0 0.5)"/>
</clipPath>
<clipPath id="clip1_1_209">
<rect width="200" height="57" fill="white" transform="translate(0 0.5)"/>
</clipPath>
</defs>
</svg>
