<svg width="20" height="21" viewBox="0 0 20 21" fill="none" xmlns="http://www.w3.org/2000/svg">
<g clip-path="url(#clip0_1_39)">
<path d="M16.1333 3.2533C15.2889 2.4533 14.3445 1.83108 13.3 1.38664C12.2556 0.942192 11.1556 0.719969 10 0.719969C8.84445 0.719969 7.73334 0.942192 6.66668 1.38664C5.60001 1.83108 4.66668 2.4533 3.86668 3.2533C3.06668 4.0533 2.44445 4.98664 2.00001 6.0533C1.55557 7.11997 1.33334 8.23108 1.33334 9.38664C1.33334 10.5422 1.55557 11.6422 2.00001 12.6866C2.44445 13.7311 3.06668 14.6755 3.86668 15.52L8.46668 20.12C8.86668 20.52 9.36668 20.72 9.96668 20.72C10.5667 20.72 11.0889 20.52 11.5333 20.12L16.1333 15.52C16.9333 14.6755 17.5556 13.7311 18 12.6866C18.4445 11.6422 18.6667 10.5422 18.6667 9.38664C18.6667 8.23108 18.4445 7.11997 18 6.0533C17.5556 4.98664 16.9333 4.0533 16.1333 3.2533ZM15.2667 14.6533L10.6667 19.2533C10.4889 19.4311 10.2667 19.52 10 19.52C9.73334 19.52 9.4889 19.4311 9.26668 19.2533L4.66668 14.6533C3.95557 13.9422 3.42223 13.1311 3.06668 12.22C2.71112 11.3089 2.53334 10.3533 2.53334 9.3533C2.53334 8.3533 2.71112 7.39775 3.06668 6.48664C3.42223 5.57553 3.95557 4.77553 4.66668 4.08664C5.37779 3.39775 6.1889 2.86441 7.10001 2.48664C8.01112 2.10886 8.96668 1.91997 9.96668 1.91997C10.9667 1.91997 11.9222 2.10886 12.8333 2.48664C13.7445 2.86441 14.5556 3.38664 15.2667 4.0533C16.2445 5.03108 16.9 6.16441 17.2333 7.4533C17.5667 8.74219 17.5667 10.0311 17.2333 11.32C16.9 12.6089 16.2445 13.72 15.2667 14.6533ZM10 6.2533C9.15557 6.2533 8.42223 6.56441 7.80001 7.18664C7.17779 7.80886 6.86668 8.54219 6.86668 9.38664C6.86668 10.2311 7.17779 10.9533 7.80001 11.5533C8.42223 12.1533 9.15557 12.4533 10 12.4533C10.8445 12.4533 11.5667 12.1533 12.1667 11.5533C12.7667 10.9533 13.0667 10.2311 13.0667 9.38664C13.0667 8.54219 12.7667 7.80886 12.1667 7.18664C11.5667 6.56441 10.8445 6.2533 10 6.2533ZM10 11.32C9.46668 11.32 9.01112 11.1311 8.63334 10.7533C8.25557 10.3755 8.06668 9.91997 8.06668 9.38664C8.06668 8.8533 8.25557 8.39775 8.63334 8.01997C9.01112 7.64219 9.46668 7.4533 10 7.4533C10.5333 7.4533 10.9889 7.64219 11.3667 8.01997C11.7445 8.39775 11.9333 8.8533 11.9333 9.38664C11.9333 9.91997 11.7445 10.3755 11.3667 10.7533C10.9889 11.1311 10.5333 11.32 10 11.32Z" fill="white"/>
</g>
<defs>
<clipPath id="clip0_1_39">
<rect width="20" height="20" fill="white" transform="matrix(1 0 0 -1 0 20.72)"/>
</clipPath>
</defs>
</svg>
