<svg width="21" height="21" viewBox="0 0 21 21" fill="none" xmlns="http://www.w3.org/2000/svg">
<path d="M15.3502 20.25C13.528 20.25 11.7502 19.9167 10.0169 19.25C8.19464 18.5389 6.58353 17.4722 5.18353 16.05C3.78353 14.6278 2.70575 13.0056 1.9502 11.1833C1.28353 9.45 0.950195 7.67222 0.950195 5.85C0.950195 4.82778 1.20575 3.89444 1.71686 3.05C2.22797 2.20555 2.90575 1.52778 3.7502 1.01667C4.59464 0.505554 5.52797 0.249998 6.5502 0.249998C6.81686 0.249998 6.99464 0.383333 7.08353 0.65L9.61686 6.91667C9.66131 7.05 9.6502 7.19444 9.58353 7.35C9.51686 7.50556 9.41686 7.60555 9.28353 7.65L6.5502 8.78333C6.59464 9.80556 6.88353 10.7611 7.41686 11.65C7.9502 12.5389 8.66131 13.25 9.5502 13.7833C10.4391 14.3167 11.3946 14.6056 12.4169 14.65L13.5502 11.9167C13.5946 11.7833 13.6946 11.6833 13.8502 11.6167C14.0058 11.55 14.1502 11.5389 14.2835 11.5833L20.5502 14.1167C20.8169 14.2056 20.9502 14.3833 20.9502 14.65C20.9502 15.6722 20.6946 16.6056 20.1835 17.45C19.6724 18.2944 18.9946 18.9722 18.1502 19.4833C17.3058 19.9944 16.3724 20.25 15.3502 20.25ZM6.1502 1.45C5.03908 1.53889 4.09464 2.00555 3.31686 2.85C2.53908 3.69444 2.1502 4.69444 2.1502 5.85C2.1502 7.62778 2.48353 9.31667 3.1502 10.9167C3.81686 12.5167 4.77242 13.9389 6.01686 15.1833C7.26131 16.4278 8.68353 17.3833 10.2835 18.05C11.8835 18.7167 13.5724 19.05 15.3502 19.05C16.5058 19.05 17.5058 18.6611 18.3502 17.8833C19.1946 17.1056 19.6613 16.1611 19.7502 15.05L14.4169 12.9167L13.3502 15.5167C13.2613 15.7389 13.0835 15.85 12.8169 15.85C11.4835 15.85 10.2391 15.5167 9.08353 14.85C7.92797 14.1833 7.01686 13.2722 6.3502 12.1167C5.68353 10.9611 5.3502 9.71667 5.3502 8.38333C5.3502 8.11667 5.46131 7.93889 5.68353 7.85L8.28353 6.78333L6.1502 1.45Z" fill="white"/>
</svg>
