<svg width="21" height="21" viewBox="0 0 21 21" fill="none" xmlns="http://www.w3.org/2000/svg">
<g clip-path="url(#clip0_1_50)">
<path d="M16.7767 18.8898H14.3767C14.2433 18.8898 14.11 18.9565 13.9767 19.0898C13.8433 19.2232 13.7767 19.3676 13.7767 19.5232C13.7767 19.6787 13.8433 19.8121 13.9767 19.9232C14.11 20.0343 14.2433 20.0898 14.3767 20.0898H16.7767C16.9544 20.0898 17.0989 20.0343 17.21 19.9232C17.3211 19.8121 17.3767 19.6787 17.3767 19.5232C17.3767 19.3676 17.3211 19.2232 17.21 19.0898C17.0989 18.9565 16.9544 18.8898 16.7767 18.8898ZM12.0433 18.8898H9.71C9.53223 18.8898 9.38778 18.9565 9.27667 19.0898C9.16556 19.2232 9.11 19.3676 9.11 19.5232C9.11 19.6787 9.16556 19.8121 9.27667 19.9232C9.38778 20.0343 9.53223 20.0898 9.71 20.0898H12.0433C12.2211 20.0898 12.3656 20.0343 12.4767 19.9232C12.5878 19.8121 12.6433 19.6787 12.6433 19.5232C12.6433 19.3676 12.5878 19.2232 12.4767 19.0898C12.3656 18.9565 12.2211 18.8898 12.0433 18.8898ZM20.31 8.28984C20.1767 8.28984 20.0433 8.3454 19.91 8.45651C19.7767 8.56762 19.71 8.71207 19.71 8.88984V11.2232C19.71 11.401 19.7767 11.5454 19.91 11.6565C20.0433 11.7676 20.1878 11.8232 20.3433 11.8232C20.4989 11.8232 20.6322 11.7676 20.7433 11.6565C20.8544 11.5454 20.91 11.401 20.91 11.2232V8.88984C20.91 8.71207 20.8544 8.56762 20.7433 8.45651C20.6322 8.3454 20.4878 8.28984 20.31 8.28984ZM20.31 12.9565C20.1767 12.9565 20.0433 13.0232 19.91 13.1565C19.7767 13.2898 19.71 13.4232 19.71 13.5565V15.8898C19.71 16.0676 19.7767 16.2121 19.91 16.3232C20.0433 16.4343 20.1878 16.4898 20.3433 16.4898C20.4989 16.4898 20.6322 16.4343 20.7433 16.3232C20.8544 16.2121 20.91 16.0676 20.91 15.8898V13.5565C20.91 13.4232 20.8544 13.2898 20.7433 13.1565C20.6322 13.0232 20.4878 12.9565 20.31 12.9565ZM7.37667 18.8898H6.77667V18.3565C6.77667 18.1787 6.72112 18.0343 6.61 17.9232C6.49889 17.8121 6.35445 17.7565 6.17667 17.7565C5.99889 17.7565 5.85445 17.8121 5.74334 17.9232C5.63223 18.0343 5.57667 18.1787 5.57667 18.3565V19.4898C5.57667 19.6676 5.63223 19.8121 5.74334 19.9232C5.85445 20.0343 5.99889 20.0898 6.17667 20.0898H7.37667C7.51 20.0898 7.63223 20.0343 7.74334 19.9232C7.85445 19.8121 7.91 19.6787 7.91 19.5232C7.91 19.3676 7.85445 19.2232 7.74334 19.0898C7.63223 18.9565 7.51 18.8898 7.37667 18.8898ZM20.31 4.75651H19.1767C18.9989 4.75651 18.8544 4.81207 18.7433 4.92318C18.6322 5.03429 18.5767 5.17873 18.5767 5.35651C18.5767 5.53429 18.6322 5.67873 18.7433 5.78984C18.8544 5.90095 18.9989 5.95651 19.1767 5.95651H19.71V6.55651C19.71 6.68984 19.7767 6.81207 19.91 6.92318C20.0433 7.03429 20.1878 7.08984 20.3433 7.08984C20.4989 7.08984 20.6322 7.03429 20.7433 6.92318C20.8544 6.81207 20.91 6.68984 20.91 6.55651V5.35651C20.91 5.17873 20.8544 5.03429 20.7433 4.92318C20.6322 4.81207 20.4878 4.75651 20.31 4.75651ZM20.31 17.7565C20.1767 17.7565 20.0433 17.8121 19.91 17.9232C19.7767 18.0343 19.71 18.1787 19.71 18.3565V18.8898H19.1767C18.9989 18.8898 18.8544 18.9565 18.7433 19.0898C18.6322 19.2232 18.5767 19.3676 18.5767 19.5232C18.5767 19.6787 18.6322 19.8121 18.7433 19.9232C18.8544 20.0343 18.9989 20.0898 19.1767 20.0898H20.31C20.4878 20.0898 20.6322 20.0343 20.7433 19.9232C20.8544 19.8121 20.91 19.6676 20.91 19.4898V18.3565C20.91 18.1787 20.8544 18.0343 20.7433 17.9232C20.6322 17.8121 20.4878 17.7565 20.31 17.7565ZM16.7767 4.75651H16.1767V0.689842C16.1767 0.512066 16.11 0.36762 15.9767 0.25651C15.8433 0.145399 15.71 0.0898418 15.5767 0.0898418H1.51C1.33223 0.0898418 1.18778 0.145399 1.07667 0.25651C0.965559 0.36762 0.910004 0.512066 0.910004 0.689842V14.7565C0.910004 14.8898 0.965559 15.0232 1.07667 15.1565C1.18778 15.2898 1.33223 15.3565 1.51 15.3565H5.57667V15.8898C5.57667 16.0676 5.63223 16.2121 5.74334 16.3232C5.85445 16.4343 5.99889 16.4898 6.17667 16.4898C6.35445 16.4898 6.49889 16.4343 6.61 16.3232C6.72112 16.2121 6.77667 16.0676 6.77667 15.8898V5.95651H16.7767C16.9544 5.95651 17.0989 5.90095 17.21 5.78984C17.3211 5.67873 17.3767 5.53429 17.3767 5.35651C17.3767 5.17873 17.3211 5.03429 17.21 4.92318C17.0989 4.81207 16.9544 4.75651 16.7767 4.75651ZM14.9767 4.75651H6.17667C5.99889 4.75651 5.85445 4.81207 5.74334 4.92318C5.63223 5.03429 5.57667 5.17873 5.57667 5.35651V14.1565H2.11V1.28984H14.9767V4.75651Z" fill="white"/>
</g>
<defs>
<clipPath id="clip0_1_50">
<rect width="20" height="20" fill="white" transform="matrix(1 0 0 -1 0.910004 20.0898)"/>
</clipPath>
</defs>
</svg>
