<svg width="61" height="61" viewBox="0 0 61 61" fill="none" xmlns="http://www.w3.org/2000/svg">
<path d="M30.9899 56.7001C30.1899 56.7001 29.4566 56.5001 28.7899 56.1001L19.9899 50.9001C16.2566 48.7667 13.2233 45.8334 10.8899 42.1001C8.55659 38.3667 7.18993 34.3667 6.78993 30.1001L5.58993 15.1001C5.45659 14.0334 5.65659 13.0667 6.18993 12.2001C6.72326 11.3334 7.45659 10.7667 8.38993 10.5001C9.85659 10.1001 11.1899 9.50007 12.3899 8.70007C13.8566 7.76674 15.1899 6.56674 16.3899 5.10007C17.1899 4.03341 18.3233 3.50007 19.7899 3.50007H42.1899C43.6566 3.50007 44.7899 4.03341 45.5899 5.10007C46.7899 6.56674 48.1233 7.76674 49.5899 8.70007C50.7899 9.50007 52.1233 10.1001 53.5899 10.5001C54.5233 10.7667 55.2566 11.3334 55.7899 12.2001C56.3233 13.0667 56.5899 13.9667 56.5899 14.9001L55.1899 29.9001C54.9233 34.3001 53.6233 38.3334 51.2899 42.0001C48.9566 45.6667 45.9233 48.6334 42.1899 50.9001L33.3899 56.1001C32.5899 56.5001 31.7899 56.7001 30.9899 56.7001ZM19.7899 7.10007C19.5233 7.10007 19.3233 7.16674 19.1899 7.30007C17.8566 9.03341 16.3233 10.5667 14.5899 11.9001C13.1233 12.8334 11.5233 13.5001 9.78993 13.9001C9.38993 14.0334 9.18993 14.3001 9.18993 14.7001L10.5899 29.7001C10.8566 33.4334 11.9899 36.9001 13.9899 40.1001C15.9899 43.3001 18.5899 45.8334 21.7899 47.7001L30.5899 52.9001C30.8566 53.0334 31.1233 53.0334 31.3899 52.9001L40.1899 47.7001C43.3899 45.8334 45.9899 43.3334 47.9899 40.2001C49.9899 37.0667 51.1233 33.5667 51.3899 29.7001L52.7899 14.7001C52.7899 14.4334 52.5899 14.2334 52.1899 14.1001C50.4566 13.7001 48.8566 12.9667 47.3899 11.9001C45.6566 10.7001 44.1233 9.23341 42.7899 7.50007C42.6566 7.36674 42.4566 7.30007 42.1899 7.30007L19.7899 7.10007ZM29.1899 35.9001C28.6566 35.9001 28.1899 35.7001 27.7899 35.3001L22.7899 30.3001C22.5233 30.0334 22.4233 29.6667 22.4899 29.2001C22.5566 28.7334 22.7566 28.3334 23.0899 28.0001C23.4233 27.6667 23.7899 27.4667 24.1899 27.4001C24.5899 27.3334 24.9899 27.4334 25.3899 27.7001L29.1899 31.5001L37.7899 22.7001C38.1899 22.5667 38.5899 22.5001 38.9899 22.5001C39.3899 22.5001 39.7566 22.6667 40.0899 23.0001C40.4233 23.3334 40.6233 23.7001 40.6899 24.1001C40.7566 24.5001 40.6566 24.9001 40.3899 25.3001L30.3899 35.3001C30.1233 35.7001 29.7233 35.9001 29.1899 35.9001Z" fill="#1A1A1A"/>
</svg>
