<svg width="61" height="61" viewBox="0 0 61 61" fill="none" xmlns="http://www.w3.org/2000/svg">
<path d="M18.4599 43.5C18.4599 42.9667 18.6599 42.5 19.0599 42.1C19.4599 41.7 19.8599 41.5 20.2599 41.5H41.0599C41.4599 41.5 41.8599 41.7 42.2599 42.1C42.6599 42.5 42.8599 42.9667 42.8599 43.5C42.8599 44.0333 42.6599 44.4667 42.2599 44.8C41.8599 45.1333 41.4599 45.3 41.0599 45.3H20.2599C19.8599 45.3 19.4599 45.1333 19.0599 44.8C18.6599 44.4667 18.4599 44.0333 18.4599 43.5ZM38.6599 4.9C36.3932 3.03333 33.7266 2.1 30.6599 2.1C27.5932 2.1 24.9266 3.03333 22.6599 4.9L7.6599 16.5C6.0599 17.8333 4.79323 19.3667 3.8599 21.1C2.92657 22.8333 2.4599 24.7 2.4599 26.7V45.5C2.4599 47.7667 3.0599 49.9 4.2599 51.9C5.4599 53.9 7.0599 55.5 9.0599 56.7C11.0599 57.9 13.2599 58.5 15.6599 58.5H45.6599C48.0599 58.5 50.2599 57.9 52.2599 56.7C54.2599 55.5 55.8599 53.9 57.0599 51.9C58.2599 49.9 58.8599 47.7667 58.8599 45.5V26.7C58.8599 24.7 58.3932 22.8333 57.4599 21.1C56.5266 19.3667 55.2599 17.8333 53.6599 16.5L38.6599 4.9ZM24.8599 7.9C26.5932 6.56667 28.5266 5.9 30.6599 5.9C32.7932 5.9 34.7266 6.56667 36.4599 7.9L51.4599 19.5C52.5266 20.4333 53.3932 21.5333 54.0599 22.8C54.7266 24.0667 55.0599 25.3667 55.0599 26.7V45.5C55.0599 48.0333 54.1266 50.2 52.2599 52C50.3932 53.8 48.1932 54.7 45.6599 54.7H15.6599C13.1266 54.7 10.9266 53.8 9.0599 52C7.19323 50.2 6.2599 48.0333 6.2599 45.5V26.7C6.2599 25.3667 6.59323 24.0667 7.2599 22.8C7.92657 21.5333 8.79323 20.4333 9.8599 19.5L24.8599 7.9Z" fill="#1A1A1A"/>
</svg>
