<svg width="61" height="61" viewBox="0 0 61 61" fill="none" xmlns="http://www.w3.org/2000/svg">
<g clip-path="url(#clip0_1_7)">
<path d="M59.33 43.7L57.5303 42.1V35.1C57.5303 33.9 57.0971 32.8667 56.2306 32C55.364 31.1334 54.3642 30.7 53.2311 30.7C52.0979 30.7 51.1314 31.0334 50.3315 31.7C49.5317 32.3667 48.9984 33.2334 48.7318 34.3L47.1321 32.9C46.3322 32.1 45.3324 31.7 44.1326 31.7C42.9328 31.7 41.8663 32.1 40.9331 32.9L28.7351 43.7C28.4685 43.9667 28.3352 44.3 28.3352 44.7C28.3352 45.1 28.4352 45.4334 28.6352 45.7C28.8351 45.9667 29.1351 46.1 29.535 46.1C29.9349 46.1 30.2682 46.0334 30.5348 45.9V55.7C30.5348 56.9 30.9348 57.9 31.7346 58.7C32.5345 59.5 33.4677 59.9 34.5342 59.9H53.531C54.7308 59.9 55.6973 59.5 56.4305 58.7C57.1637 57.9 57.5303 56.9 57.5303 55.7V45.9C57.9303 46.0334 58.2969 46.1 58.6302 46.1C58.9634 46.1 59.2634 45.9334 59.53 45.6C59.7966 45.2667 59.8966 44.9334 59.83 44.6C59.7633 44.2667 59.5967 43.9667 59.33 43.7ZM46.5322 57.1H41.9329V53.7C41.9329 53.1667 42.1329 52.7 42.5328 52.3C42.9328 51.9 43.3994 51.7 43.9326 51.7H44.5325C45.0658 51.7 45.5323 51.9 45.9323 52.3C46.3322 52.7 46.5322 53.1667 46.5322 53.7V57.1ZM54.7308 55.7C54.7308 56.1 54.6308 56.4334 54.4309 56.7C54.2309 56.9667 53.9309 57.1 53.531 57.1H49.3317V53.7C49.3317 52.3667 48.8651 51.2334 47.9319 50.3C46.9988 49.3667 45.8656 48.9 44.5325 48.9H43.9326C42.5995 48.9 41.4664 49.3667 40.5332 50.3C39.6 51.2334 39.1334 52.3667 39.1334 53.7V57.1H34.5342C34.2676 57.1 34.0009 56.9667 33.7343 56.7C33.4677 56.4334 33.3344 56.1 33.3344 55.7V43.3L42.7328 35.1C43.1327 34.7 43.566 34.5 44.0326 34.5C44.4992 34.5 44.9324 34.7 45.3324 35.1L54.7308 43.3V55.7ZM54.7308 35.1V39.7L51.5313 36.7V35.1C51.5313 34.7 51.6647 34.3334 51.9313 34C52.1979 33.6667 52.5645 33.4667 53.0311 33.4C53.4977 33.3334 53.8976 33.4667 54.2309 33.8C54.5642 34.1334 54.7308 34.5667 54.7308 35.1ZM44.1326 37.9C42.9328 37.9 41.9329 38.3334 41.1331 39.2C40.3332 40.0667 39.9333 41.0667 39.9333 42.2C39.9333 43.3334 40.3332 44.3 41.1331 45.1C41.9329 45.9 42.8994 46.3 44.0326 46.3C45.1657 46.3 46.1656 45.9 47.0321 45.1C47.8986 44.3 48.3319 43.3334 48.3319 42.2C48.3319 41.0667 47.8986 40.0667 47.0321 39.2C46.1656 38.3334 45.1991 37.9 44.1326 37.9ZM45.3324 42.1C45.3324 42.5 45.2324 42.8334 45.0324 43.1C44.8325 43.3667 44.5325 43.5 44.1326 43.5C43.7326 43.5 43.3994 43.3667 43.1327 43.1C42.8661 42.8334 42.7328 42.5 42.7328 42.1C42.7328 41.7 42.8661 41.3667 43.1327 41.1C43.3994 40.8334 43.7326 40.7 44.1326 40.7C44.5325 40.7 44.8325 40.8334 45.0324 41.1C45.2324 41.3667 45.3324 41.7 45.3324 42.1ZM25.9356 56.9H8.13857C6.93877 56.9 5.87228 56.4667 4.93911 55.6C4.00593 54.7334 3.53934 53.7 3.53934 52.5V8.10003C3.53934 6.90002 4.00593 5.83336 4.93911 4.90002C5.87228 3.96669 6.93877 3.50002 8.13857 3.50002H48.7318C50.0649 3.50002 51.1647 3.96669 52.0313 4.90002C52.8978 5.83336 53.331 6.90002 53.331 8.10003V25.9C53.331 26.3 53.4644 26.6334 53.731 26.9C53.9976 27.1667 54.3309 27.3 54.7308 27.3C55.1307 27.3 55.464 27.1667 55.7306 26.9C55.9973 26.6334 56.1306 26.3 56.1306 25.9V8.10003C56.1306 6.10003 55.3974 4.36669 53.9309 2.90002C52.4645 1.43336 50.7315 0.700024 48.7318 0.700024H8.13857C6.13891 0.700024 4.40586 1.43336 2.93944 2.90002C1.47302 4.36669 0.739807 6.10003 0.739807 8.10003V52.5C0.739807 54.5 1.47302 56.2334 2.93944 57.7C4.40586 59.1667 6.13891 59.9 8.13857 59.9H25.9356C26.3355 59.9 26.7021 59.7334 27.0354 59.4C27.3687 59.0667 27.5353 58.7334 27.5353 58.4C27.5353 58.0667 27.3687 57.7334 27.0354 57.4C26.7021 57.0667 26.3355 56.9 25.9356 56.9ZM43.3327 14.9C43.3327 14.5 43.1994 14.1667 42.9328 13.9C42.6662 13.6334 42.3329 13.5 41.9329 13.5H14.1376C13.7376 13.5 13.4044 13.6334 13.1377 13.9C12.8711 14.1667 12.7378 14.5 12.7378 14.9C12.7378 15.3 12.8711 15.6334 13.1377 15.9C13.4044 16.1667 13.7376 16.3 14.1376 16.3H41.9329C42.3329 16.3 42.6662 16.1667 42.9328 15.9C43.1994 15.6334 43.3327 15.3 43.3327 14.9ZM36.5338 25.7C36.5338 25.4334 36.4005 25.1334 36.1339 24.8C35.8673 24.4667 35.534 24.3 35.1341 24.3H14.1376C13.7376 24.3 13.4044 24.4667 13.1377 24.8C12.8711 25.1334 12.7378 25.4667 12.7378 25.8C12.7378 26.1334 12.8711 26.4667 13.1377 26.8C13.4044 27.1334 13.7376 27.3 14.1376 27.3H35.1341C35.534 27.3 35.8673 27.1334 36.1339 26.8C36.4005 26.4667 36.5338 26.1 36.5338 25.7ZM14.1376 35.3C13.7376 35.3 13.4044 35.4334 13.1377 35.7C12.8711 35.9667 12.7378 36.3 12.7378 36.7C12.7378 37.1 12.8711 37.4334 13.1377 37.7C13.4044 37.9667 13.7376 38.1 14.1376 38.1H22.7361C23.0028 38.1 23.3027 37.9667 23.636 37.7C23.9693 37.4334 24.1359 37.1 24.1359 36.7C24.1359 36.3 23.9693 35.9667 23.636 35.7C23.3027 35.4334 23.0028 35.3 22.7361 35.3H14.1376Z" fill="#1A1A1A"/>
</g>
<defs>
<clipPath id="clip0_1_7">
<rect width="60.01" height="60" fill="white" transform="matrix(1 0 0 -1 0.329834 60.3)"/>
</clipPath>
</defs>
</svg>
